<svg width="130" height="31" viewBox="0 0 130 31" fill="none" xmlns="http://www.w3.org/2000/svg">
<path d="M10.0441 16.8022H9.73411C9.18644 16.8022 8.7576 16.611 8.4476 16.2287C8.13759 15.836 7.90509 15.4175 7.75009 14.9732L4.80506 6.47907H4.40205V19.4062C4.40205 20.1399 4.27805 20.7289 4.03005 21.1732C3.78204 21.6072 3.2137 21.8243 2.32503 21.8243C1.33302 21.8243 0.697508 21.6124 0.418505 21.1887C0.139502 20.7651 0 20.1709 0 19.4062V3.65804C0 2.9967 0.0361671 2.40253 0.108501 1.87552C0.191169 1.33818 0.392671 0.914511 0.713008 0.604507C1.04368 0.28417 1.58102 0.124001 2.32503 0.124001H4.43305C4.97039 0.124001 5.39406 0.170502 5.70407 0.263503C6.01407 0.356504 6.31891 0.651007 6.61858 1.14701C6.80458 1.44668 7.02675 1.91169 7.28508 2.54203C7.52275 3.14137 7.80176 3.91121 8.12209 4.85156C8.44243 5.7919 8.8351 6.94408 9.30011 8.3081L9.70311 9.54811H10.0751L10.5711 7.99809C10.7778 7.34708 10.9741 6.74774 11.1601 6.20007C11.3461 5.64207 11.5115 5.14089 11.6561 4.69655C11.9558 3.79754 12.2193 3.0587 12.4466 2.48003C12.674 1.89102 12.8806 1.43635 13.0667 1.11601C13.3353 0.640674 13.6195 0.356504 13.9192 0.263503C14.2292 0.170502 14.6425 0.124001 15.1592 0.124001H17.4222C18.1662 0.124001 18.6984 0.28417 19.0187 0.604507C19.3494 0.914511 19.5509 1.33818 19.6232 1.87552C19.7059 2.40253 19.7472 2.9967 19.7472 3.65804V19.4062C19.7472 20.1709 19.6077 20.7651 19.3287 21.1887C19.0497 21.6124 18.4142 21.8243 17.4222 21.8243C16.5439 21.8243 15.9755 21.6072 15.7172 21.1732C15.4692 20.7289 15.3452 20.1399 15.3452 19.4062V6.47907H14.9112L11.9971 14.9732C11.8215 15.4175 11.589 15.836 11.2996 16.2287C11.0206 16.611 10.6021 16.8022 10.0441 16.8022Z" fill="url(#paint0_linear_49_10)"/>
<path d="M23.9013 15.5312V6.26207C23.9013 5.24939 24.0459 4.40205 24.3353 3.72004C24.6246 3.01737 24.9966 2.43353 25.4513 1.96852C25.906 1.50352 26.402 1.14185 26.9393 0.88351C27.208 0.749175 27.4715 0.635507 27.7298 0.542506C27.9985 0.449505 28.262 0.366838 28.5203 0.294503C29.037 0.160169 29.4968 0.0775009 29.8998 0.0465005C30.3132 0.0155002 30.618 0 30.8144 0H31.3414C31.5377 0 31.8425 0.0155002 32.2559 0.0465005C32.6692 0.0775009 33.129 0.160169 33.6354 0.294503C34.1521 0.418505 34.6791 0.61484 35.2164 0.88351C35.7331 1.13151 36.2239 1.49835 36.6889 1.98402C37.1229 2.44903 37.4794 3.03287 37.7584 3.73554C38.0478 4.42788 38.1924 5.27006 38.1924 6.26207V15.5312C38.1924 16.5542 38.0529 17.4222 37.7739 18.1352C37.4846 18.8482 37.1229 19.4424 36.6889 19.9177C36.2549 20.3931 35.7641 20.7651 35.2164 21.0337C34.6997 21.3024 34.1727 21.5091 33.6354 21.6537C33.129 21.7881 32.6692 21.8708 32.2559 21.9018C31.8425 21.9328 31.5377 21.9483 31.3414 21.9483H30.8144C30.6284 21.9483 30.3235 21.9328 29.8998 21.9018C29.4865 21.8708 29.0267 21.7881 28.5203 21.6537C28.014 21.5194 27.487 21.3127 26.9393 21.0337C26.402 20.7651 25.906 20.3931 25.4513 19.9177C25.007 19.4424 24.635 18.8482 24.3353 18.1352C24.0459 17.4222 23.9013 16.5542 23.9013 15.5312ZM29.0473 6.01407V16.1202C29.0577 16.4819 29.1455 16.8177 29.3108 17.1277C29.4452 17.386 29.6467 17.6185 29.9153 17.8252C30.1943 18.0319 30.587 18.1352 31.0934 18.1352C31.5894 18.1352 31.9717 18.0319 32.2404 17.8252C32.509 17.6185 32.7105 17.386 32.8449 17.1277C32.9895 16.8177 33.0774 16.4819 33.1084 16.1202V6.01407C33.0774 5.6524 32.9895 5.31656 32.8449 5.00656C32.7105 4.75855 32.509 4.53122 32.2404 4.32455C31.9717 4.10755 31.5894 3.99905 31.0934 3.99905C30.587 3.99905 30.1943 4.10755 29.9153 4.32455C29.6467 4.53122 29.4452 4.75855 29.3108 5.00656C29.1455 5.30623 29.0577 5.64207 29.0473 6.01407Z" fill="url(#paint1_linear_49_10)"/>
<path d="M42.5325 27.7908V3.68904C42.5325 3.04837 42.5842 2.45936 42.6875 1.92202C42.7908 1.37435 43.0078 0.940344 43.3385 0.620007C43.6795 0.289337 44.1962 0.124001 44.8885 0.124001C45.6325 0.124001 46.175 0.28417 46.516 0.604507C46.8674 0.914511 47.0895 1.33818 47.1825 1.87552C47.2859 2.41286 47.3375 3.01737 47.3375 3.68904V25.5278H50.3756C50.9956 25.5278 51.5639 25.5794 52.0806 25.6828C52.6076 25.7861 53.0261 25.9979 53.3361 26.3183C53.6565 26.6386 53.8166 27.1294 53.8166 27.7908C53.8166 28.4625 53.6565 28.9636 53.3361 29.2943C53.0261 29.6146 52.6128 29.8265 52.0961 29.9298C51.5794 30.0331 51.0059 30.0848 50.3756 30.0848H45.9735C44.8679 30.0848 44.0153 29.9608 43.416 29.7128C42.827 29.4648 42.5325 28.8241 42.5325 27.7908Z" fill="url(#paint2_linear_49_10)"/>
<path d="M51.9411 15.5312V6.26207C51.9411 5.24939 52.0858 4.40205 52.3751 3.72004C52.6644 3.01737 53.0364 2.43353 53.4911 1.96852C53.9458 1.50352 54.4418 1.14185 54.9791 0.88351C55.2478 0.749175 55.5113 0.635507 55.7696 0.542506C56.0383 0.449505 56.3018 0.366838 56.5602 0.294503C57.0768 0.160169 57.5367 0.0775009 57.9397 0.0465005C58.353 0.0155002 58.6578 0 58.8542 0H59.3812C59.5775 0 59.8824 0.0155002 60.2957 0.0465005C60.709 0.0775009 61.1689 0.160169 61.6752 0.294503C62.1919 0.418505 62.7189 0.61484 63.2562 0.88351C63.7729 1.13151 64.2637 1.49835 64.7287 1.98402C65.1628 2.44903 65.5193 3.03287 65.7983 3.73554C66.0876 4.42788 66.2323 5.27006 66.2323 6.26207V15.5312C66.2323 16.5542 66.0928 17.4222 65.8138 18.1352C65.5244 18.8482 65.1628 19.4424 64.7287 19.9177C64.2947 20.3931 63.8039 20.7651 63.2562 21.0337C62.7396 21.3024 62.2126 21.5091 61.6752 21.6537C61.1689 21.7881 60.709 21.8708 60.2957 21.9018C59.8824 21.9328 59.5775 21.9483 59.3812 21.9483H58.8542C58.6682 21.9483 58.3633 21.9328 57.9397 21.9018C57.5263 21.8708 57.0665 21.7881 56.5602 21.6537C56.0538 21.5194 55.5268 21.3127 54.9791 21.0337C54.4418 20.7651 53.9458 20.3931 53.4911 19.9177C53.0468 19.4424 52.6748 18.8482 52.3751 18.1352C52.0858 17.4222 51.9411 16.5542 51.9411 15.5312ZM57.0872 6.01407V16.1202C57.0975 16.4819 57.1853 16.8177 57.3507 17.1277C57.485 17.386 57.6865 17.6185 57.9552 17.8252C58.2342 18.0319 58.6268 18.1352 59.1332 18.1352C59.6292 18.1352 60.0115 18.0319 60.2802 17.8252C60.5489 17.6185 60.7504 17.386 60.8847 17.1277C61.0294 16.8177 61.1172 16.4819 61.1482 16.1202V6.01407C61.1172 5.6524 61.0294 5.31656 60.8847 5.00656C60.7504 4.75855 60.5489 4.53122 60.2802 4.32455C60.0115 4.10755 59.6292 3.99905 59.1332 3.99905C58.6268 3.99905 58.2342 4.10755 57.9552 4.32455C57.6865 4.53122 57.485 4.75855 57.3507 5.00656C57.1853 5.30623 57.0975 5.64207 57.0872 6.01407Z" fill="url(#paint3_linear_49_10)"/>
<path d="M72.2463 0.124001H76.7414C78.6944 0.124001 80.2806 0.594173 81.4999 1.53452C82.1096 2.00986 82.585 2.59886 82.926 3.30154C83.267 4.00421 83.4375 4.82572 83.4375 5.76607V15.3762C83.4375 16.1822 83.3496 16.89 83.174 17.4997C82.9983 18.1094 82.771 18.6415 82.492 19.0962C82.2026 19.5406 81.8771 19.9229 81.5154 20.2432C81.1538 20.5636 80.7869 20.8219 80.4149 21.0182C79.5469 21.4936 78.5394 21.7623 77.3924 21.8243H72.2463C71.5023 21.8243 70.965 21.6693 70.6343 21.3592C70.3036 21.0492 70.097 20.6256 70.0143 20.0882C69.9316 19.5509 69.8903 18.9412 69.8903 18.2592V3.65804C69.8903 2.98637 69.9316 2.38703 70.0143 1.86002C70.097 1.32268 70.3036 0.89901 70.6343 0.589007C70.965 0.279003 71.5023 0.124001 72.2463 0.124001ZM76.6174 3.75104H74.6024V18.1352H76.6174C77.0411 18.1249 77.4389 18.0215 77.8109 17.8252C78.1622 17.6495 78.4464 17.386 78.6634 17.0347C78.8907 16.673 79.0044 16.2132 79.0044 15.6552V6.51008C79.0044 5.9004 78.8907 5.39406 78.6634 4.99106C78.4464 4.58805 78.1622 4.28838 77.8109 4.09205C77.4596 3.89571 77.0617 3.78204 76.6174 3.75104Z" fill="url(#paint4_linear_49_10)"/>
<path d="M89.2655 0.124001H95.3416C95.9616 0.124001 96.5403 0.170502 97.0776 0.263503C97.6253 0.346171 98.0645 0.542506 98.3951 0.85251C98.7361 1.16251 98.9066 1.65335 98.9066 2.32503C98.9066 2.9967 98.7361 3.48754 98.3951 3.79754C98.0645 4.10755 97.6253 4.30905 97.0776 4.40205C96.5403 4.48472 95.9616 4.52605 95.3416 4.52605H91.6526V8.7421H93.6056C94.2153 8.7421 94.7836 8.78343 95.3106 8.8661C95.8376 8.93844 96.2613 9.12444 96.5816 9.42411C96.9123 9.71345 97.0776 10.1888 97.0776 10.8501C97.0776 11.5115 96.9123 11.992 96.5816 12.2916C96.2613 12.581 95.8376 12.767 95.3106 12.8496C94.7836 12.922 94.2153 12.9581 93.6056 12.9581H91.6526V17.4222H95.3416C95.9616 17.4222 96.5403 17.4635 97.0776 17.5462C97.6253 17.6289 98.0645 17.8252 98.3951 18.1352C98.7361 18.4349 98.9066 18.9206 98.9066 19.5922C98.9066 20.2742 98.7361 20.7754 98.3951 21.0957C98.0541 21.4057 97.6098 21.6072 97.0621 21.7003C96.5248 21.7829 95.9513 21.8243 95.3416 21.8243H89.2655C88.5319 21.8243 87.9997 21.6641 87.669 21.3437C87.3487 21.0234 87.1472 20.5946 87.0645 20.0572C86.9818 19.5199 86.9405 18.9206 86.9405 18.2592V3.68904C86.9405 3.0277 86.9818 2.42836 87.0645 1.89102C87.1472 1.35368 87.3487 0.924844 87.669 0.604507C87.9997 0.28417 88.5319 0.124001 89.2655 0.124001Z" fill="url(#paint5_linear_49_10)"/>
<path d="M103.743 0.124001H111.617C112.237 0.124001 112.815 0.170502 113.353 0.263503C113.89 0.346171 114.324 0.542506 114.655 0.85251C114.985 1.16251 115.151 1.65335 115.151 2.32503C115.151 2.98637 114.985 3.47204 114.655 3.78204C114.324 4.09205 113.89 4.29355 113.353 4.38655C112.815 4.47955 112.237 4.52605 111.617 4.52605H110.036V18.2902C110.036 18.9516 109.994 19.5509 109.912 20.0882C109.829 20.6256 109.622 21.0492 109.292 21.3592C108.971 21.6693 108.434 21.8243 107.68 21.8243C106.936 21.8243 106.398 21.6693 106.068 21.3592C105.737 21.0492 105.53 20.6256 105.448 20.0882C105.365 19.5509 105.324 18.9516 105.324 18.2902V4.52605H103.743C103.133 4.52605 102.554 4.47955 102.007 4.38655C101.469 4.29355 101.035 4.09205 100.705 3.78204C100.374 3.47204 100.209 2.98637 100.209 2.32503C100.209 1.65335 100.374 1.16251 100.705 0.85251C101.035 0.542506 101.469 0.346171 102.007 0.263503C102.554 0.170502 103.133 0.124001 103.743 0.124001Z" fill="url(#paint6_linear_49_10)"/>
<path d="M121.444 5.58006C121.454 6.01407 121.578 6.40674 121.816 6.75808C122.064 7.09908 122.389 7.42459 122.792 7.73459C123.123 7.99293 123.583 8.29776 124.172 8.6491C124.761 9.00044 125.272 9.30527 125.706 9.56361C126.233 9.88395 126.75 10.2405 127.256 10.6331C127.763 11.0155 128.217 11.4495 128.62 11.9351C129.023 12.4208 129.349 12.9685 129.597 13.5782C129.845 14.1878 129.979 14.8802 130 15.6552V15.7792C130 16.6059 129.897 17.3447 129.69 17.9957C129.277 19.2254 128.605 20.1399 127.675 20.7392C127.2 21.0492 126.724 21.2869 126.249 21.4522C125.743 21.6279 125.231 21.7519 124.714 21.8243C124.208 21.8966 123.728 21.9379 123.273 21.9483H123.118C122.26 21.9483 121.49 21.8604 120.808 21.6847C120.147 21.5091 119.579 21.2766 119.103 20.9872C118.628 20.6876 118.235 20.3466 117.925 19.9642C117.605 19.5819 117.352 19.1841 117.166 18.7707C116.98 18.3677 116.846 17.9647 116.763 17.5617C116.68 17.1587 116.639 16.7815 116.639 16.4302C116.639 15.7275 116.851 15.2005 117.274 14.8492C117.708 14.4978 118.23 14.3222 118.84 14.3222C119.429 14.3222 119.971 14.503 120.467 14.8647C120.974 15.216 121.237 15.7275 121.258 16.3992C121.279 17.1742 121.454 17.7064 121.785 17.9957C122.116 18.2747 122.591 18.4142 123.211 18.4142C123.883 18.3935 124.404 18.223 124.776 17.9027C125.159 17.5824 125.35 17.0089 125.35 16.1822C125.35 15.4692 125.138 14.8388 124.714 14.2912C124.301 13.7435 123.774 13.2423 123.133 12.7876C122.493 12.3226 121.826 11.8731 121.134 11.4391C120.411 10.9741 119.729 10.4885 119.088 9.98211C118.447 9.46544 117.925 8.8816 117.522 8.23059C117.119 7.57959 116.908 6.82008 116.887 5.95207V5.70407C116.897 4.59839 117.042 3.67871 117.321 2.94503C117.61 2.21136 118.034 1.62752 118.592 1.19351C119.14 0.759509 119.816 0.454672 120.622 0.279003C121.428 0.0930011 122.353 0 123.397 0H123.8C124.73 0 125.536 0.103335 126.218 0.310004C126.879 0.516673 127.427 0.780176 127.861 1.10051C128.305 1.42085 128.657 1.78252 128.915 2.18553C129.163 2.5782 129.349 2.97603 129.473 3.37904C129.597 3.77171 129.674 4.13855 129.705 4.47955C129.736 4.82056 129.752 5.09439 129.752 5.30106C129.752 5.91073 129.53 6.40674 129.085 6.78908C128.651 7.16108 128.119 7.34708 127.489 7.34708C127.014 7.34708 126.549 7.17142 126.094 6.82008C125.639 6.46874 125.412 6.0864 125.412 5.67307C125.412 4.82572 125.257 4.23672 124.947 3.90604C124.647 3.57537 124.203 3.41004 123.614 3.41004C122.932 3.41004 122.4 3.53404 122.017 3.78204C121.635 4.03005 121.444 4.62939 121.444 5.58006Z" fill="url(#paint7_linear_49_10)"/>
<defs>
<linearGradient id="paint0_linear_49_10" x1="0" y1="15.3767" x2="130" y2="15.3767" gradientUnits="userSpaceOnUse">
<stop stop-color="#7364D2"/>
<stop offset="1" stop-color="#4FB3DF"/>
</linearGradient>
<linearGradient id="paint1_linear_49_10" x1="0" y1="15.3767" x2="130" y2="15.3767" gradientUnits="userSpaceOnUse">
<stop stop-color="#7364D2"/>
<stop offset="1" stop-color="#4FB3DF"/>
</linearGradient>
<linearGradient id="paint2_linear_49_10" x1="0" y1="15.3767" x2="130" y2="15.3767" gradientUnits="userSpaceOnUse">
<stop stop-color="#7364D2"/>
<stop offset="1" stop-color="#4FB3DF"/>
</linearGradient>
<linearGradient id="paint3_linear_49_10" x1="0" y1="15.3767" x2="130" y2="15.3767" gradientUnits="userSpaceOnUse">
<stop stop-color="#7364D2"/>
<stop offset="1" stop-color="#4FB3DF"/>
</linearGradient>
<linearGradient id="paint4_linear_49_10" x1="0" y1="15.3767" x2="130" y2="15.3767" gradientUnits="userSpaceOnUse">
<stop stop-color="#7364D2"/>
<stop offset="1" stop-color="#4FB3DF"/>
</linearGradient>
<linearGradient id="paint5_linear_49_10" x1="0" y1="15.3767" x2="130" y2="15.3767" gradientUnits="userSpaceOnUse">
<stop stop-color="#7364D2"/>
<stop offset="1" stop-color="#4FB3DF"/>
</linearGradient>
<linearGradient id="paint6_linear_49_10" x1="0" y1="15.3767" x2="130" y2="15.3767" gradientUnits="userSpaceOnUse">
<stop stop-color="#7364D2"/>
<stop offset="1" stop-color="#4FB3DF"/>
</linearGradient>
<linearGradient id="paint7_linear_49_10" x1="0" y1="15.3767" x2="130" y2="15.3767" gradientUnits="userSpaceOnUse">
<stop stop-color="#7364D2"/>
<stop offset="1" stop-color="#4FB3DF"/>
</linearGradient>
</defs>
</svg>
