<svg width="100" height="24" viewBox="0 0 100 24" fill="none" xmlns="http://www.w3.org/2000/svg">
<path d="M7.72624 12.9248H7.48778C7.06649 12.9248 6.73662 12.7777 6.49815 12.4836C6.25969 12.1816 6.08084 11.8596 5.96161 11.5178L3.6962 4.9839H3.38619V14.9279C3.38619 15.4922 3.29081 15.9453 3.10004 16.2871C2.90926 16.621 2.47208 16.7879 1.78848 16.7879C1.0254 16.7879 0.536545 16.6249 0.321927 16.299C0.107309 15.9731 0 15.5161 0 14.9279V2.81388C0 2.30515 0.0278208 1.8481 0.0834625 1.44271C0.147053 1.02937 0.302055 0.70347 0.548468 0.465005C0.80283 0.218592 1.21617 0.0953857 1.78848 0.0953857H3.41004C3.82338 0.0953857 4.14928 0.131155 4.38774 0.202695C4.62621 0.274234 4.8607 0.500775 5.09121 0.882318C5.23429 1.11283 5.40519 1.47053 5.60391 1.95541C5.78673 2.41644 6.00135 3.00862 6.24776 3.73197C6.49418 4.45531 6.79623 5.3416 7.15393 6.39084L7.46393 7.3447H7.75009L8.13163 6.15238C8.29061 5.6516 8.44164 5.19057 8.58471 4.76929C8.72779 4.34005 8.85497 3.95453 8.96626 3.61273C9.19677 2.92119 9.39947 2.35285 9.57434 1.90771C9.74922 1.45463 9.90819 1.10488 10.0513 0.858471C10.2579 0.492826 10.4765 0.274234 10.707 0.202695C10.9455 0.131155 11.2635 0.0953857 11.6609 0.0953857H13.4017C13.974 0.0953857 14.3834 0.218592 14.6298 0.465005C14.8841 0.70347 15.0391 1.02937 15.0948 1.44271C15.1584 1.8481 15.1902 2.30515 15.1902 2.81388V14.9279C15.1902 15.5161 15.0829 15.9731 14.8682 16.299C14.6536 16.6249 14.1648 16.7879 13.4017 16.7879C12.726 16.7879 12.2889 16.621 12.0901 16.2871C11.8994 15.9453 11.804 15.4922 11.804 14.9279V4.9839H11.4701L9.22857 11.5178C9.09344 11.8596 8.91459 12.1816 8.69202 12.4836C8.47741 12.7777 8.15548 12.9248 7.72624 12.9248Z" fill="url(#paint0_linear_49_28)"/>
<path d="M18.3856 11.9471V4.81698C18.3856 4.03799 18.4969 3.38619 18.7194 2.86157C18.942 2.32105 19.2282 1.87194 19.5779 1.51425C19.9277 1.15655 20.3092 0.878343 20.7225 0.679623C20.9292 0.576289 21.1319 0.488852 21.3306 0.417312C21.5373 0.345773 21.74 0.282183 21.9387 0.226541C22.3362 0.123207 22.6899 0.0596161 22.9999 0.0357696C23.3178 0.0119232 23.5523 0 23.7034 0H24.1087C24.2598 0 24.4943 0.0119232 24.8122 0.0357696C25.1302 0.0596161 25.4839 0.123207 25.8734 0.226541C26.2708 0.321927 26.6762 0.472954 27.0895 0.679623C27.487 0.870395 27.8646 1.15258 28.2222 1.52617C28.5561 1.88387 28.8303 2.33298 29.045 2.87349C29.2675 3.40606 29.3788 4.05389 29.3788 4.81698V11.9471C29.3788 12.734 29.2715 13.4017 29.0569 13.9502C28.8343 14.4986 28.5561 14.9557 28.2222 15.3213C27.8884 15.687 27.5108 15.9731 27.0895 16.1798C26.6921 16.3865 26.2867 16.5454 25.8734 16.6567C25.4839 16.7601 25.1302 16.8237 24.8122 16.8475C24.4943 16.8713 24.2598 16.8833 24.1087 16.8833H23.7034C23.5603 16.8833 23.3258 16.8713 22.9999 16.8475C22.6819 16.8237 22.3282 16.7601 21.9387 16.6567C21.5492 16.5534 21.1438 16.3944 20.7225 16.1798C20.3092 15.9731 19.9277 15.687 19.5779 15.3213C19.2361 14.9557 18.95 14.4986 18.7194 13.9502C18.4969 13.4017 18.3856 12.734 18.3856 11.9471ZM22.3441 4.62621V12.4001C22.3521 12.6784 22.4196 12.9367 22.5468 13.1752C22.6501 13.3739 22.8051 13.5527 23.0118 13.7117C23.2264 13.8707 23.5285 13.9502 23.918 13.9502C24.2995 13.9502 24.5936 13.8707 24.8003 13.7117C25.007 13.5527 25.162 13.3739 25.2653 13.1752C25.3766 12.9367 25.4441 12.6784 25.468 12.4001V4.62621C25.4441 4.348 25.3766 4.08966 25.2653 3.8512C25.162 3.66043 25.007 3.48555 24.8003 3.32658C24.5936 3.15965 24.2995 3.07619 23.918 3.07619C23.5285 3.07619 23.2264 3.15965 23.0118 3.32658C22.8051 3.48555 22.6501 3.66043 22.5468 3.8512C22.4196 4.08171 22.3521 4.34005 22.3441 4.62621Z" fill="url(#paint1_linear_49_28)"/>
<path d="M32.7173 21.3775V2.83772C32.7173 2.3449 32.757 1.89182 32.8365 1.47848C32.916 1.05719 33.0829 0.723342 33.3373 0.476929C33.5996 0.222567 33.9971 0.0953857 34.5296 0.0953857C35.1019 0.0953857 35.5193 0.218592 35.7816 0.465005C36.0518 0.70347 36.2227 1.02937 36.2943 1.44271C36.3738 1.85605 36.4135 2.32105 36.4135 2.83772V19.6367H38.7504C39.2274 19.6367 39.6646 19.6765 40.062 19.756C40.4674 19.8355 40.7893 19.9984 41.0278 20.2448C41.2742 20.4912 41.3974 20.8688 41.3974 21.3775C41.3974 21.8942 41.2742 22.2797 41.0278 22.5341C40.7893 22.7805 40.4714 22.9434 40.0739 23.0229C39.6765 23.1024 39.2353 23.1422 38.7504 23.1422H35.3643C34.5137 23.1422 33.858 23.0468 33.3969 22.856C32.9438 22.6652 32.7173 22.1724 32.7173 21.3775Z" fill="url(#paint2_linear_49_28)"/>
<path d="M39.9547 11.9471V4.81698C39.9547 4.03799 40.066 3.38619 40.2885 2.86157C40.5111 2.32105 40.7973 1.87194 41.147 1.51425C41.4968 1.15655 41.8783 0.878343 42.2916 0.679623C42.4983 0.576289 42.701 0.488852 42.8997 0.417312C43.1064 0.345773 43.3091 0.282183 43.5078 0.226541C43.9053 0.123207 44.259 0.0596161 44.569 0.0357696C44.8869 0.0119232 45.1214 0 45.2724 0H45.6778C45.8289 0 46.0634 0.0119232 46.3813 0.0357696C46.6993 0.0596161 47.053 0.123207 47.4425 0.226541C47.8399 0.321927 48.2453 0.472954 48.6586 0.679623C49.0561 0.870395 49.4336 1.15258 49.7913 1.52617C50.1252 1.88387 50.3994 2.33298 50.614 2.87349C50.8366 3.40606 50.9479 4.05389 50.9479 4.81698V11.9471C50.9479 12.734 50.8406 13.4017 50.626 13.9502C50.4034 14.4986 50.1252 14.9557 49.7913 15.3213C49.4575 15.687 49.0799 15.9731 48.6586 16.1798C48.2612 16.3865 47.8558 16.5454 47.4425 16.6567C47.053 16.7601 46.6993 16.8237 46.3813 16.8475C46.0634 16.8713 45.8289 16.8833 45.6778 16.8833H45.2724C45.1294 16.8833 44.8949 16.8713 44.569 16.8475C44.251 16.8237 43.8973 16.7601 43.5078 16.6567C43.1183 16.5534 42.7129 16.3944 42.2916 16.1798C41.8783 15.9731 41.4968 15.687 41.147 15.3213C40.8052 14.9557 40.5191 14.4986 40.2885 13.9502C40.066 13.4017 39.9547 12.734 39.9547 11.9471ZM43.9132 4.62621V12.4001C43.9211 12.6784 43.9887 12.9367 44.1159 13.1752C44.2192 13.3739 44.3742 13.5527 44.5809 13.7117C44.7955 13.8707 45.0976 13.9502 45.4871 13.9502C45.8686 13.9502 46.1627 13.8707 46.3694 13.7117C46.576 13.5527 46.7311 13.3739 46.8344 13.1752C46.9457 12.9367 47.0132 12.6784 47.0371 12.4001V4.62621C47.0132 4.348 46.9457 4.08966 46.8344 3.8512C46.7311 3.66043 46.576 3.48555 46.3694 3.32658C46.1627 3.15965 45.8686 3.07619 45.4871 3.07619C45.0976 3.07619 44.7955 3.15965 44.5809 3.32658C44.3742 3.48555 44.2192 3.66043 44.1159 3.8512C43.9887 4.08171 43.9211 4.34005 43.9132 4.62621Z" fill="url(#paint3_linear_49_28)"/>
<path d="M55.5741 0.0953857H59.0318C60.5342 0.0953857 61.7543 0.457057 62.6923 1.1804C63.1612 1.54604 63.5269 1.99913 63.7892 2.53964C64.0515 3.08016 64.1827 3.71209 64.1827 4.43544V11.8278C64.1827 12.4478 64.1151 12.9923 63.98 13.4613C63.8448 13.9303 63.67 14.3397 63.4553 14.6894C63.2328 15.0312 62.9824 15.3253 62.7042 15.5717C62.426 15.8181 62.1438 16.0168 61.8576 16.1679C61.1899 16.5335 60.4149 16.7402 59.5326 16.7879H55.5741C55.0018 16.7879 54.5885 16.6687 54.3341 16.4302C54.0797 16.1917 53.9207 15.8658 53.8572 15.4525C53.7936 15.0391 53.7618 14.5702 53.7618 14.0455V2.81388C53.7618 2.29721 53.7936 1.83617 53.8572 1.43079C53.9207 1.01745 54.0797 0.691546 54.3341 0.453082C54.5885 0.214618 55.0018 0.0953857 55.5741 0.0953857ZM58.9365 2.88542H57.3864V13.9502H58.9365C59.2624 13.9422 59.5684 13.8627 59.8545 13.7117C60.1248 13.5766 60.3434 13.3739 60.5103 13.1036C60.6852 12.8254 60.7726 12.4717 60.7726 12.0424V5.00775C60.7726 4.53877 60.6852 4.14928 60.5103 3.83927C60.3434 3.52927 60.1248 3.29876 59.8545 3.14773C59.5843 2.9967 59.2782 2.90926 58.9365 2.88542Z" fill="url(#paint4_linear_49_28)"/>
<path d="M68.6658 0.0953857H73.3397C73.8166 0.0953857 74.2618 0.131155 74.6751 0.202695C75.0964 0.266285 75.4342 0.417312 75.6886 0.655777C75.9509 0.894241 76.082 1.27181 76.082 1.78848C76.082 2.30515 75.9509 2.68272 75.6886 2.92119C75.4342 3.15965 75.0964 3.31465 74.6751 3.38619C74.2618 3.44978 73.8166 3.48158 73.3397 3.48158H70.502V6.72469H72.0043C72.4733 6.72469 72.9105 6.75649 73.3158 6.82008C73.7212 6.87572 74.0471 7.0188 74.2935 7.24931C74.5479 7.47188 74.6751 7.83753 74.6751 8.34625C74.6751 8.85497 74.5479 9.22459 74.2935 9.45511C74.0471 9.67768 73.7212 9.82075 73.3158 9.88434C72.9105 9.93999 72.4733 9.96781 72.0043 9.96781H70.502V13.4017H73.3397C73.8166 13.4017 74.2618 13.4335 74.6751 13.4971C75.0964 13.5607 75.4342 13.7117 75.6886 13.9502C75.9509 14.1807 76.082 14.5543 76.082 15.0709C76.082 15.5956 75.9509 15.9811 75.6886 16.2275C75.4263 16.466 75.0845 16.621 74.6632 16.6925C74.2498 16.7561 73.8087 16.7879 73.3397 16.7879H68.6658C68.1014 16.7879 67.6921 16.6647 67.4377 16.4183C67.1913 16.1719 67.0363 15.842 66.9727 15.4286C66.9091 15.0153 66.8773 14.5543 66.8773 14.0455V2.83772C66.8773 2.329 66.9091 1.86797 66.9727 1.45463C67.0363 1.04129 67.1913 0.711418 67.4377 0.465005C67.6921 0.218592 68.1014 0.0953857 68.6658 0.0953857Z" fill="url(#paint5_linear_49_28)"/>
<path d="M79.8021 0.0953857H85.8591C86.336 0.0953857 86.7811 0.131155 87.1945 0.202695C87.6078 0.266285 87.9417 0.417312 88.196 0.655777C88.4504 0.894241 88.5776 1.27181 88.5776 1.78848C88.5776 2.29721 88.4504 2.6708 88.196 2.90926C87.9417 3.14773 87.6078 3.30273 87.1945 3.37427C86.7811 3.44581 86.336 3.48158 85.8591 3.48158H84.6429V14.0694C84.6429 14.5781 84.6111 15.0391 84.5475 15.4525C84.4839 15.8658 84.3249 16.1917 84.0706 16.4302C83.8242 16.6687 83.4108 16.7879 82.8306 16.7879C82.2583 16.7879 81.8449 16.6687 81.5906 16.4302C81.3362 16.1917 81.1772 15.8658 81.1136 15.4525C81.05 15.0391 81.0182 14.5781 81.0182 14.0694V3.48158H79.8021C79.3331 3.48158 78.888 3.44581 78.4667 3.37427C78.0533 3.30273 77.7195 3.14773 77.4651 2.90926C77.2108 2.6708 77.0836 2.29721 77.0836 1.78848C77.0836 1.27181 77.2108 0.894241 77.4651 0.655777C77.7195 0.417312 78.0533 0.266285 78.4667 0.202695C78.888 0.131155 79.3331 0.0953857 79.8021 0.0953857Z" fill="url(#paint6_linear_49_28)"/>
<path d="M93.4184 4.29236C93.4263 4.62621 93.5217 4.92826 93.7045 5.19852C93.8953 5.46083 94.1457 5.71122 94.4557 5.94968C94.7101 6.1484 95.0638 6.38289 95.5169 6.65315C95.97 6.92341 96.3634 7.1579 96.6973 7.35662C97.1027 7.60304 97.5001 7.87727 97.8896 8.17932C98.2791 8.47343 98.6288 8.80728 98.9388 9.18087C99.2488 9.55447 99.4992 9.97576 99.69 10.4447C99.8808 10.9137 99.9841 11.4463 100 12.0424V12.1378C100 12.7737 99.9205 13.3421 99.7615 13.8429C99.4436 14.7888 98.9269 15.4922 98.2115 15.9533C97.8459 16.1917 97.4802 16.3745 97.1146 16.5017C96.7251 16.6369 96.3316 16.7322 95.9342 16.7879C95.5447 16.8435 95.1751 16.8753 94.8253 16.8833H94.7061C94.0463 16.8833 93.4542 16.8157 92.9295 16.6806C92.4208 16.5454 91.9836 16.3666 91.618 16.144C91.2523 15.9135 90.9503 15.6512 90.7118 15.3571C90.4654 15.063 90.2707 14.757 90.1276 14.439C89.9845 14.129 89.8812 13.819 89.8176 13.509C89.754 13.199 89.7222 12.9089 89.7222 12.6386C89.7222 12.0981 89.8851 11.6927 90.211 11.4224C90.5449 11.1522 90.9463 11.017 91.4153 11.017C91.8684 11.017 92.2857 11.1562 92.6672 11.4344C93.0567 11.7046 93.2594 12.0981 93.2753 12.6148C93.2912 13.2109 93.4263 13.6203 93.6807 13.8429C93.9351 14.0575 94.3007 14.1648 94.7776 14.1648C95.2943 14.1489 95.6957 14.0177 95.9819 13.7713C96.276 13.5249 96.423 13.0837 96.423 12.4478C96.423 11.8994 96.2601 11.4145 95.9342 10.9932C95.6162 10.5719 95.2108 10.1864 94.718 9.83665C94.2252 9.47896 93.7125 9.13318 93.1799 8.79933C92.6235 8.44164 92.0989 8.06804 91.6061 7.67855C91.1132 7.28111 90.7118 6.832 90.4018 6.33123C90.0918 5.83045 89.9289 5.24621 89.913 4.57851V4.38774C89.9209 3.53722 90.0322 2.82978 90.2468 2.26541C90.4694 1.70105 90.7953 1.25194 91.2245 0.918087C91.6458 0.584237 92.1665 0.349748 92.7865 0.214618C93.4065 0.0715393 94.1179 0 94.9207 0H95.2307C95.9461 0 96.5661 0.0794881 97.0907 0.238464C97.5995 0.39744 98.0207 0.600135 98.3546 0.846548C98.6964 1.09296 98.9667 1.37117 99.1654 1.68117C99.3561 1.98323 99.4992 2.28926 99.5946 2.59926C99.69 2.90132 99.7496 3.1835 99.7735 3.44581C99.7973 3.70812 99.8092 3.91876 99.8092 4.07774C99.8092 4.54672 99.6383 4.92826 99.2965 5.22237C98.9627 5.50852 98.5533 5.6516 98.0684 5.6516C97.7028 5.6516 97.3451 5.51647 96.9953 5.24621C96.6456 4.97595 96.4707 4.68185 96.4707 4.3639C96.4707 3.71209 96.3515 3.25901 96.113 3.00465C95.8825 2.75029 95.5407 2.62311 95.0876 2.62311C94.563 2.62311 94.1536 2.71849 93.8595 2.90926C93.5654 3.10004 93.4184 3.56107 93.4184 4.29236Z" fill="url(#paint7_linear_49_28)"/>
<defs>
<linearGradient id="paint0_linear_49_28" x1="0" y1="11.8282" x2="100" y2="11.8282" gradientUnits="userSpaceOnUse">
<stop stop-color="#7364D2"/>
<stop offset="1" stop-color="#4FB3DF"/>
</linearGradient>
<linearGradient id="paint1_linear_49_28" x1="0" y1="11.8282" x2="100" y2="11.8282" gradientUnits="userSpaceOnUse">
<stop stop-color="#7364D2"/>
<stop offset="1" stop-color="#4FB3DF"/>
</linearGradient>
<linearGradient id="paint2_linear_49_28" x1="0" y1="11.8282" x2="100" y2="11.8282" gradientUnits="userSpaceOnUse">
<stop stop-color="#7364D2"/>
<stop offset="1" stop-color="#4FB3DF"/>
</linearGradient>
<linearGradient id="paint3_linear_49_28" x1="0" y1="11.8282" x2="100" y2="11.8282" gradientUnits="userSpaceOnUse">
<stop stop-color="#7364D2"/>
<stop offset="1" stop-color="#4FB3DF"/>
</linearGradient>
<linearGradient id="paint4_linear_49_28" x1="0" y1="11.8282" x2="100" y2="11.8282" gradientUnits="userSpaceOnUse">
<stop stop-color="#7364D2"/>
<stop offset="1" stop-color="#4FB3DF"/>
</linearGradient>
<linearGradient id="paint5_linear_49_28" x1="0" y1="11.8282" x2="100" y2="11.8282" gradientUnits="userSpaceOnUse">
<stop stop-color="#7364D2"/>
<stop offset="1" stop-color="#4FB3DF"/>
</linearGradient>
<linearGradient id="paint6_linear_49_28" x1="0" y1="11.8282" x2="100" y2="11.8282" gradientUnits="userSpaceOnUse">
<stop stop-color="#7364D2"/>
<stop offset="1" stop-color="#4FB3DF"/>
</linearGradient>
<linearGradient id="paint7_linear_49_28" x1="0" y1="11.8282" x2="100" y2="11.8282" gradientUnits="userSpaceOnUse">
<stop stop-color="#7364D2"/>
<stop offset="1" stop-color="#4FB3DF"/>
</linearGradient>
</defs>
</svg>
